<svg width="153" height="64" viewBox="0 0 153 64" fill="none" xmlns="http://www.w3.org/2000/svg">
<g clip-path="url(#clip0_713_2694)">
<path d="M11.0554 18.0314V23.8517C11.0554 24.5409 11.2241 25.1027 11.5598 25.5389C11.8955 25.9752 12.3273 26.1941 12.8519 26.1941C13.2972 26.1941 13.8842 25.9871 14.6146 25.5746C14.785 25.4711 14.9571 25.4201 15.1274 25.4201C15.4007 25.4201 15.652 25.5865 15.8798 25.9192C16.1075 26.2518 16.2222 26.6134 16.2222 27.0038C16.2222 27.715 15.8342 28.399 15.0583 29.0525C13.4372 30.4427 11.4755 31.1369 9.17126 31.1369C7.34612 31.1369 5.87858 30.6175 4.77203 29.5787C3.66547 28.5399 3.11219 27.1701 3.11219 25.4711V17.5137C3.11219 17.2489 3.08014 17.086 3.01773 17.0232C2.95532 16.9603 2.79169 16.9281 2.53024 16.9281H0.770879C0.440261 16.9281 0.229408 16.8738 0.13832 16.7651C0.0455442 16.6565 0 16.4002 0 15.9979V15.2409C0.0118078 14.8963 0.14338 14.6434 0.39303 14.4839L8.2317 9.52409C8.42569 9.42055 8.66522 9.36963 8.95029 9.36963H10.3369C10.6219 9.36963 10.8125 9.43583 10.9104 9.56822C11.0065 9.70062 11.0554 9.96202 11.0554 10.3524V12.6778C11.0554 13.0224 11.1094 13.2465 11.2174 13.35C11.3253 13.4535 11.5564 13.5045 11.9107 13.5045H15.0768C15.4985 13.5045 15.7718 13.5825 15.8983 13.737C16.0231 13.8915 16.0872 14.2225 16.0872 14.7266V15.7433C16.0872 16.295 16.008 16.6769 15.8477 16.8891C15.6875 17.1012 15.3973 17.2082 14.9756 17.2082H11.8769C11.5581 17.2082 11.3405 17.2659 11.2258 17.3796C11.1128 17.4916 11.0554 17.7089 11.0554 18.0314Z" fill="#EFAF23"/>
<path d="M27.5205 13.5011C29.6088 13.5011 31.439 14.046 33.0145 15.1374C34.1447 15.9182 35.0505 16.9349 35.7354 18.1859C36.4422 19.4946 36.7964 20.861 36.7964 22.2851C36.7964 24.7768 35.6612 26.8952 33.3907 28.6401C31.2231 30.3052 28.7418 31.137 25.9451 31.137C23.2175 31.137 21.0094 30.3562 19.3209 28.7946C17.6779 27.2788 16.8564 25.3047 16.8564 22.8707C16.8564 20.1616 17.8601 17.9449 19.8691 16.2237C21.9692 14.4092 24.5197 13.5011 27.5205 13.5011ZM26.1508 17.4798C25.6482 17.4798 25.2467 17.6665 24.9448 18.0399C24.6428 18.4133 24.491 18.909 24.491 19.5302C24.491 20.2194 24.6192 21.158 24.8756 22.3462C25.132 23.5344 25.4373 24.5884 25.7915 25.5067C26.1458 26.4488 26.721 26.9189 27.5205 26.9189C28.536 26.9189 29.0437 26.2705 29.0437 24.9737C29.0437 24.0096 28.9155 22.9131 28.6592 21.6842C28.4028 20.4553 28.0907 19.4572 27.7263 18.6883C27.3502 17.9041 26.8239 17.5035 26.1508 17.4798Z" fill="#EFAF23"/>
<path d="M58.7891 19.8731L59.0287 25.9344C59.0506 26.3944 59.1231 26.7322 59.2429 26.9512C59.3627 27.1701 59.7135 27.5877 60.2955 28.2089C60.4658 28.3923 60.5519 28.6503 60.5519 28.9846C60.5519 29.7417 60.1015 30.2713 59.199 30.5683C58.2983 30.8671 56.689 31.0164 54.373 31.0164C52.7992 31.0164 51.6859 30.8789 51.0365 30.604C50.3635 30.3171 50.0261 29.852 50.0261 29.2087C50.0261 28.9796 50.0598 28.8098 50.129 28.7012C50.1981 28.5926 50.4259 28.3261 50.8138 27.9C51.2693 27.418 51.4987 25.8105 51.4987 23.0777C51.4987 21.4941 51.3165 20.3229 50.9505 19.5641C50.6536 18.9565 50.1054 18.651 49.3075 18.651C48.5434 18.651 48.0188 18.8988 47.7337 19.391C47.4486 19.885 47.3052 20.7812 47.3052 22.078V25.488C47.3052 26.1653 47.3474 26.6304 47.4334 26.8833C47.5195 27.1362 47.8012 27.6233 48.2802 28.3464C48.405 28.5535 48.4691 28.7878 48.4691 29.0525C48.4691 29.7298 48.0019 30.2305 47.0657 30.5513C46.1295 30.8721 44.6704 31.0334 42.685 31.0334C39.5121 31.0334 37.9265 30.3731 37.9265 29.0525C37.9265 28.7776 37.9754 28.5671 38.0716 28.4245C38.1677 28.2819 38.3988 28.0782 38.7648 27.8135C39.0617 27.5962 39.249 27.3467 39.3299 27.0649C39.4092 26.7831 39.4834 26.0923 39.5526 24.989C39.6319 23.6803 39.6724 22.3088 39.6724 20.8728C39.6724 20.0802 39.6133 19.5608 39.4919 19.3146C39.3721 19.0685 39.0263 18.7664 38.4562 18.4099C37.9653 18.0993 37.7207 17.7208 37.7207 17.2727C37.7207 16.8144 37.9197 16.4376 38.3195 16.1439C38.7193 15.8503 39.5408 15.4802 40.784 15.0338C41.8787 14.6434 42.9347 14.3141 43.9501 14.0442C44.9656 13.7744 45.6623 13.6403 46.0384 13.6403C46.3809 13.6403 46.6693 13.7676 46.9021 14.0188C47.1366 14.2717 47.2529 14.5704 47.2529 14.915C47.2529 14.949 47.2479 15.0932 47.2361 15.3461C47.2243 15.4378 47.2192 15.5176 47.2192 15.5872C47.2192 16.1388 47.4469 16.4138 47.9041 16.4138C48.1773 16.4138 48.4691 16.1965 48.7761 15.7586C49.7579 14.3345 51.1832 13.6233 53.0556 13.6233C54.4928 13.6233 55.7259 14.0018 56.7531 14.7605C57.4717 15.3003 57.9744 15.9351 58.2595 16.6633C58.5429 17.3915 58.72 18.4608 58.7891 19.8731Z" fill="#EFAF23"/>
<path d="M77.3577 22.9572H69.3133C68.959 22.9572 68.7836 23.1117 68.7836 23.4223C68.7836 24.1692 69.1851 24.8719 69.9897 25.5322C70.7943 26.1925 71.658 26.5218 72.5823 26.5218C73.1306 26.5218 73.7378 26.4165 74.4058 26.2026C75.0738 25.9905 75.6237 25.7291 76.0572 25.4185C76.4452 25.1435 76.7522 25.0043 76.9816 25.0043C77.2784 25.0043 77.5686 25.1876 77.8537 25.5559C78.1387 25.9243 78.2821 26.3028 78.2821 26.6932C78.2821 27.5198 77.7693 28.3176 76.742 29.0865C74.927 30.4529 72.8337 31.1353 70.4603 31.1353C68.0633 31.1353 66.056 30.4359 64.4367 29.0339C63.6489 28.3447 62.9995 27.513 62.485 26.537C61.812 25.2402 61.4746 23.8738 61.4746 22.4378C61.4746 20.5096 62.0566 18.7749 63.2205 17.237C64.2241 15.9046 65.5027 14.9116 67.0546 14.2581C68.2185 13.7642 69.4786 13.5181 70.8365 13.5181C73.004 13.5181 74.846 14.1376 76.3642 15.3784C77.1283 15.9979 77.744 16.7329 78.2129 17.5833C78.7494 18.5474 79.0176 19.4895 79.0176 20.4078C79.0176 21.1546 78.8641 21.7657 78.5554 22.2426C78.2484 22.7179 77.8486 22.9572 77.3577 22.9572ZM69.7603 19.7356H71.4893C72.2197 19.7356 72.584 19.3978 72.584 18.7189C72.584 18.0993 72.4069 17.5935 72.0544 17.2031C71.7001 16.8127 71.2379 16.6175 70.6678 16.6175C70.0285 16.6175 69.5275 16.8704 69.1615 17.3745C68.819 17.8447 68.6487 18.3217 68.6487 18.8037C68.6487 19.1483 68.7313 19.3893 68.8966 19.5268C69.0602 19.6677 69.3487 19.7356 69.7603 19.7356Z" fill="#EFAF23"/>
<path d="M13.2601 34.4807C15.2911 34.4807 17.0825 34.9916 18.6344 36.0135C20.107 36.9895 20.8424 38.2014 20.8424 39.6476C20.8424 40.6456 20.5 41.4553 19.8151 42.0765C19.1758 42.6621 18.4066 42.9541 17.5042 42.9541C16.5562 42.9541 15.8444 42.6095 15.3653 41.9204C15.2169 41.7014 14.9993 41.1447 14.7142 40.2501C14.4055 39.286 13.8185 38.804 12.9515 38.804C12.324 38.804 11.796 39.0789 11.3675 39.6306C10.9391 40.1822 10.7265 40.8595 10.7265 41.6624C10.7265 43.0406 11.2174 44.2628 12.1991 45.3304C12.997 46.191 14.0023 46.6221 15.2118 46.6221C15.7819 46.6221 16.261 46.5729 16.649 46.4762C17.0369 46.3794 17.5447 46.1808 18.1722 45.8821C18.3324 45.8023 18.5078 45.7616 18.7035 45.7616C19.0915 45.7616 19.4339 45.9449 19.7308 46.3132C20.0277 46.6815 20.1761 47.111 20.1761 47.6049C20.1761 48.1209 19.9653 48.6641 19.5436 49.2327C19.1219 49.8013 18.5686 50.297 17.8837 50.723C16.401 51.6413 14.6484 52.1013 12.6293 52.1013C10.2778 52.1013 8.27558 51.4122 6.62249 50.0339C4.50046 48.289 3.43945 46.0671 3.43945 43.3699C3.43945 40.7746 4.42624 38.6274 6.39983 36.9283C8.27895 35.2972 10.5663 34.4807 13.2601 34.4807Z" fill="#F5DDAB"/>
<path d="M31.7275 34.4637C33.7129 34.4637 35.3964 34.9696 36.7762 35.9795C37.5066 36.5193 38.0177 37.1371 38.3078 37.8314C38.598 38.5256 38.7447 39.4812 38.7447 40.6982L38.711 43.2647C38.711 45.0436 38.8358 46.1978 39.0871 46.7257C39.212 46.9786 39.3317 47.1398 39.4464 47.2077C39.5611 47.2773 39.8007 47.3401 40.165 47.3978C40.5294 47.4555 40.7132 47.6966 40.7132 48.1209C40.7132 48.6726 40.4939 49.2463 40.0537 49.8438C39.6151 50.4412 39.0467 50.9403 38.35 51.3426C37.4948 51.8484 36.5991 52.0996 35.6629 52.0996C34.4652 52.0996 33.5172 51.6854 32.8223 50.8605C32.5827 50.5618 32.3601 50.4124 32.1543 50.4124C31.9266 50.4124 31.6229 50.5567 31.2468 50.8435C30.1065 51.682 28.811 52.1013 27.362 52.1013C25.8675 52.1013 24.658 51.7805 23.7337 51.1372C23.1281 50.7128 22.649 50.1578 22.2965 49.4754C21.9423 48.7931 21.7651 48.0785 21.7651 47.3316C21.7651 46.1384 22.2442 45.0809 23.2023 44.1626C24.6968 42.7164 26.9336 41.9866 29.9108 41.9747C30.572 41.9747 30.9887 41.9085 31.1607 41.7761C31.3311 41.6437 31.4171 41.3365 31.4171 40.8544C31.4171 39.6374 31.2906 38.7564 31.041 38.2116C30.7896 37.6667 30.3797 37.3934 29.8079 37.3934C29.4655 37.3934 29.1602 37.497 28.892 37.7041C28.6238 37.9111 28.2898 38.2897 27.89 38.8413C26.8745 40.2994 25.8135 41.0292 24.707 41.0292C24.1486 41.0292 23.6915 40.8629 23.3373 40.5302C22.983 40.1975 22.8059 39.7613 22.8059 39.2215C22.8059 38.6699 23.0252 38.1199 23.4655 37.5683C23.904 37.0166 24.5012 36.5346 25.2535 36.1221C27.3232 35.0154 29.479 34.4637 31.7275 34.4637ZM30.5805 44.4359C30.0778 44.4359 29.6426 44.643 29.2715 45.0554C28.9004 45.4696 28.7149 45.9618 28.7149 46.5373C28.7149 47.0889 28.8464 47.5336 29.1079 47.8714C29.371 48.2109 29.7185 48.3789 30.152 48.3789C31.0646 48.3789 31.5217 47.6049 31.5217 46.0535C31.5217 45.4221 31.4559 44.9977 31.3244 44.7788C31.1928 44.5615 30.9448 44.4478 30.5805 44.4359Z" fill="#F5DDAB"/>
<path d="M49.8171 34.5844C50.421 34.5844 50.7904 34.6709 50.9203 34.8424C51.0518 35.0138 51.1682 35.5654 51.2711 36.4956C51.3285 37.0014 51.5056 37.2526 51.8025 37.2526C52.0302 37.2526 52.2478 37.0863 52.4536 36.7536C53.3662 35.3193 54.5588 34.6013 56.0314 34.6013C57.0688 34.6013 57.9189 34.9408 58.5818 35.6181C58.9006 35.9507 59.1638 36.3785 59.3696 36.9013C59.5754 37.4241 59.6783 37.9265 59.6783 38.4086C59.6783 38.9483 59.5518 39.5017 59.3021 40.0703C59.0508 40.6389 58.7252 41.1074 58.3271 41.474C57.5967 42.1751 56.701 42.5247 55.64 42.5247C55.0581 42.5247 54.5706 42.4212 54.1775 42.2141C53.7845 42.007 53.2666 41.5878 52.629 40.9563C52.3895 40.7153 52.1668 40.5948 51.961 40.5948C51.6422 40.5948 51.4331 40.7747 51.3369 41.138C51.2391 41.4995 51.1919 42.2599 51.1919 43.4193C51.1919 45.1523 51.2543 46.3354 51.3808 46.9668C51.4601 47.3114 51.5714 47.549 51.7148 47.6814C51.8581 47.8138 52.1618 47.9479 52.6307 48.0854C53.658 48.396 54.1708 48.9358 54.1708 49.7047C54.1708 50.1766 54.0055 50.5856 53.6749 50.9353C53.3442 51.2849 52.904 51.5175 52.3575 51.6329C51.2627 51.8621 49.6535 51.9775 47.5314 51.9775C45.5123 51.9775 43.9773 51.7993 42.9281 51.4428C41.9919 51.122 41.5247 50.5653 41.5247 49.7726C41.5247 49.1751 41.8671 48.6421 42.5519 48.1702C42.8826 47.953 43.1103 47.7544 43.2368 47.5762C43.3616 47.3979 43.4476 47.1535 43.4932 46.8446C43.6754 45.8007 43.7664 43.8657 43.7664 41.0412C43.7664 40.5252 43.7091 40.1535 43.5961 39.9311C43.4814 39.7071 43.2537 39.5271 42.9112 39.388C42.1016 39.0672 41.6967 38.6021 41.6967 37.9927C41.6967 37.4411 41.9767 36.9675 42.5351 36.572C43.0934 36.1765 44.0296 35.7827 45.3419 35.3923C47.0895 34.8661 48.584 34.5962 49.8171 34.5844Z" fill="#F5DDAB"/>
<path d="M68.7111 34.5844C69.315 34.5844 69.6844 34.6709 69.8143 34.8424C69.9459 35.0138 70.0622 35.5654 70.1651 36.4956C70.2225 37.0014 70.3979 37.2526 70.6948 37.2526C70.9225 37.2526 71.1401 37.0863 71.3459 36.7536C72.2585 35.3193 73.4511 34.6013 74.9237 34.6013C75.9611 34.6013 76.8112 34.9408 77.4742 35.6181C77.793 35.9507 78.0561 36.3785 78.2619 36.9013C78.4677 37.4241 78.5706 37.9265 78.5706 38.4086C78.5706 38.9483 78.4458 39.5017 78.1944 40.0703C77.9431 40.6389 77.6175 41.1074 77.2194 41.474C76.4891 42.1751 75.5933 42.5247 74.5323 42.5247C73.9504 42.5247 73.4629 42.4212 73.0699 42.2141C72.6768 42.007 72.1607 41.5878 71.5214 40.9563C71.2818 40.7153 71.0592 40.5948 70.8534 40.5948C70.5346 40.5948 70.3254 40.7747 70.2292 41.138C70.1314 41.4995 70.0842 42.2599 70.0842 43.4193C70.0842 45.1523 70.1466 46.3354 70.2731 46.9668C70.3524 47.3114 70.4637 47.549 70.6071 47.6814C70.7505 47.8138 71.0541 47.9479 71.523 48.0854C72.5503 48.396 73.0631 48.9358 73.0631 49.7047C73.0631 50.1766 72.8978 50.5856 72.5672 50.9353C72.2366 51.2849 71.7963 51.5175 71.2498 51.6329C70.155 51.8621 68.5458 51.9775 66.4238 51.9775C64.4046 51.9775 62.8696 51.7993 61.8204 51.4428C60.8842 51.122 60.417 50.5653 60.417 49.7726C60.417 49.1751 60.7594 48.6421 61.4443 48.1702C61.7749 47.953 62.0026 47.7544 62.1291 47.5762C62.2539 47.3979 62.34 47.1535 62.3855 46.8446C62.5677 45.8007 62.6588 43.8657 62.6588 41.0412C62.6588 40.5252 62.6014 40.1535 62.4884 39.9311C62.3737 39.7071 62.146 39.5271 61.8036 39.388C60.9939 39.0672 60.589 38.6021 60.589 37.9927C60.589 37.4411 60.8691 36.9675 61.4274 36.572C61.9857 36.1765 62.9219 35.7827 64.2343 35.3923C65.9852 34.8661 67.4797 34.5962 68.7111 34.5844Z" fill="#F5DDAB"/>
<path d="M89.2144 35.6706V45.6767C89.2144 46.4694 89.2853 47.0482 89.4286 47.4166C89.572 47.7849 89.8588 48.1227 90.2923 48.4333C90.6465 48.6862 90.8827 48.9018 91.0024 49.0783C91.1222 49.2565 91.1813 49.4823 91.1813 49.7589C91.1813 51.2408 89.3156 51.9808 85.5844 51.9808C83.5754 51.9808 81.9847 51.8196 80.809 51.4988C80.4092 51.3833 80.087 51.1831 79.8424 50.8962C79.5961 50.6093 79.4747 50.2817 79.4747 49.9151C79.4747 49.6045 79.5371 49.3635 79.6636 49.192C79.7884 49.0206 80.1089 48.7439 80.6217 48.3654C80.976 48.1023 81.2256 47.6712 81.3741 47.0737C81.5225 46.4762 81.5967 45.5868 81.5967 44.4037C81.5967 44.0252 81.5714 43.3157 81.5191 42.2769C81.4685 41.2381 81.4314 40.6321 81.4078 40.459C81.3386 39.9888 81.0198 39.6272 80.4497 39.3743C79.7429 39.0637 79.3887 38.6054 79.3887 37.9961C79.3887 37.273 79.8509 36.7332 80.7752 36.3767C82.0538 35.8828 83.4219 35.4635 84.8827 35.119C86.3434 34.7744 87.4719 34.603 88.2715 34.603C88.9007 34.6013 89.2144 34.9577 89.2144 35.6706ZM85.8256 28.1274C86.8174 28.1274 87.6052 28.3142 88.1871 28.6876C88.7691 29.061 89.0592 29.5634 89.0592 30.1949C89.0592 31.0792 88.6207 31.7785 87.7418 32.2962C86.3502 33.111 84.6667 33.5183 82.6932 33.5183C81.8599 33.5183 81.1986 33.3571 80.7078 33.0363C80.0465 32.6238 79.7159 32.0484 79.7159 31.3134C79.7159 30.3256 80.4176 29.5515 81.8211 28.988C83.2481 28.4143 84.5824 28.1274 85.8256 28.1274Z" fill="#F5DDAB"/>
<path d="M108.007 43.9199H99.9629C99.6087 43.9199 99.4316 44.0744 99.4316 44.385C99.4316 45.1318 99.833 45.8346 100.638 46.4948C101.442 47.1551 102.306 47.4844 103.23 47.4844C103.779 47.4844 104.386 47.3792 105.054 47.1653C105.722 46.9531 106.272 46.6917 106.705 46.3811C107.093 46.1061 107.4 45.9686 107.63 45.9686C107.926 45.9686 108.217 46.152 108.502 46.5203C108.787 46.8886 108.93 47.2671 108.93 47.6575C108.93 48.4842 108.417 49.2819 107.39 50.0509C105.577 51.4173 103.482 52.0996 101.108 52.0996C98.713 52.0996 96.704 51.4003 95.0846 49.9982C94.2969 49.3091 93.6474 48.4774 93.133 47.5014C92.4599 46.2046 92.1226 44.8382 92.1226 43.4022C92.1226 41.474 92.7045 39.7392 93.8684 38.2014C94.8721 36.8689 96.1507 35.876 97.7026 35.2225C98.8665 34.7285 100.127 34.4824 101.484 34.4824C103.652 34.4824 105.496 35.102 107.012 36.3428C107.776 36.9623 108.392 37.6973 108.861 38.5477C109.397 39.5118 109.666 40.4538 109.666 41.3721C109.666 42.119 109.512 42.73 109.203 43.207C108.896 43.6806 108.498 43.9199 108.007 43.9199ZM100.408 40.6983H102.137C102.868 40.6983 103.232 40.3588 103.232 39.6815C103.232 39.062 103.055 38.5562 102.701 38.1658C102.346 37.7754 101.884 37.5802 101.314 37.5802C100.675 37.5802 100.174 37.8331 99.8077 38.3372C99.4653 38.8074 99.2949 39.2843 99.2949 39.7664C99.2949 40.111 99.3776 40.352 99.5429 40.4895C99.7099 40.6304 99.9967 40.6983 100.408 40.6983Z" fill="#F5DDAB"/>
<path d="M118.773 34.5844C119.377 34.5844 119.746 34.6709 119.876 34.8424C120.007 35.0138 120.124 35.5654 120.227 36.4956C120.284 37.0014 120.461 37.2526 120.758 37.2526C120.986 37.2526 121.203 37.0863 121.409 36.7536C122.322 35.3193 123.514 34.6013 124.987 34.6013C126.024 34.6013 126.874 34.9408 127.537 35.6181C127.856 35.9507 128.119 36.3785 128.325 36.9013C128.531 37.4241 128.634 37.9265 128.634 38.4086C128.634 38.9483 128.507 39.5017 128.258 40.0703C128.006 40.6389 127.681 41.1074 127.283 41.474C126.552 42.1751 125.657 42.5247 124.596 42.5247C124.014 42.5247 123.526 42.4212 123.133 42.2141C122.74 42.007 122.224 41.5878 121.585 40.9563C121.345 40.7153 121.122 40.5948 120.917 40.5948C120.598 40.5948 120.389 40.7747 120.292 41.138C120.195 41.4995 120.147 42.2599 120.147 43.4193C120.147 45.1523 120.21 46.3354 120.336 46.9668C120.416 47.3114 120.527 47.549 120.67 47.6814C120.812 47.8138 121.117 47.9479 121.586 48.0854C122.614 48.396 123.126 48.9358 123.126 49.7047C123.126 50.1766 122.961 50.5856 122.63 50.9353C122.3 51.2849 121.86 51.5175 121.313 51.6329C120.218 51.8621 118.609 51.9775 116.487 51.9775C114.468 51.9775 112.933 51.7993 111.884 51.4428C110.947 51.122 110.48 50.5653 110.48 49.7726C110.48 49.1751 110.823 48.6421 111.507 48.1702C111.838 47.953 112.066 47.7544 112.192 47.5762C112.317 47.3979 112.403 47.1535 112.449 46.8446C112.631 45.8007 112.722 43.8657 112.722 41.0412C112.722 40.5252 112.665 40.1535 112.552 39.9311C112.437 39.7071 112.209 39.5271 111.867 39.388C111.057 39.0672 110.652 38.6021 110.652 37.9927C110.652 37.4411 110.932 36.9675 111.491 36.572C112.049 36.1765 112.985 35.7827 114.298 35.3923C116.045 34.8661 117.54 34.5962 118.773 34.5844Z" fill="#F5DDAB"/>
<path d="M18.6664 4.61856V7.08826C18.6664 7.38021 18.7372 7.61954 18.8806 7.80455C19.024 7.98957 19.2061 8.08293 19.4288 8.08293C19.6177 8.08293 19.8674 7.99466 20.1778 7.81983C20.2503 7.7757 20.3228 7.75363 20.3954 7.75363C20.5117 7.75363 20.618 7.82492 20.7142 7.96581C20.8103 8.10669 20.8592 8.26115 20.8592 8.4258C20.8592 8.72793 20.6939 9.01819 20.365 9.29486C19.6768 9.88385 18.8452 10.1792 17.8668 10.1792C17.0925 10.1792 16.4701 9.95854 15.9995 9.51722C15.5305 9.0759 15.2944 8.49539 15.2944 7.774V4.39959C15.2944 4.28757 15.2809 4.21797 15.2539 4.19082C15.2269 4.16366 15.1578 4.15008 15.0464 4.15008H14.2975C14.1575 4.15008 14.0681 4.12632 14.0293 4.08049C13.9905 4.03466 13.9719 3.92602 13.9719 3.75459V3.43378C13.977 3.28781 14.0326 3.18087 14.1389 3.11298L17.4653 1.00821C17.548 0.964083 17.6492 0.942017 17.7707 0.942017H18.3594C18.4808 0.942017 18.5618 0.970872 18.6023 1.02689C18.6427 1.0829 18.6647 1.19323 18.6647 1.35957V2.34576C18.6647 2.49173 18.6883 2.58678 18.7338 2.63092C18.7794 2.67505 18.8772 2.69712 19.0273 2.69712H20.3717C20.5505 2.69712 20.6669 2.72937 20.7209 2.79556C20.7749 2.86176 20.8002 3.00095 20.8002 3.21652V3.64765C20.8002 3.88189 20.7665 4.04314 20.699 4.1331C20.6315 4.22307 20.5084 4.2689 20.3279 4.2689H19.0138C18.8789 4.2689 18.7861 4.29266 18.7372 4.34188C18.6917 4.38941 18.6664 4.48277 18.6664 4.61856Z" fill="#F9DAAF"/>
<path d="M25.3275 0.364938L25.2331 3.42703C25.223 3.79196 25.3343 3.97528 25.5671 3.97528C25.6835 3.97528 25.7965 3.8955 25.9078 3.73425C26.3767 3.04681 27.0042 2.70394 27.7886 2.70394C28.5578 2.70394 29.1718 2.93988 29.6256 3.41345C29.8297 3.62223 29.9731 3.87174 30.0574 4.1586C30.1417 4.44546 30.189 4.85792 30.1991 5.3943L30.2649 8.03204C30.2699 8.26119 30.3003 8.42923 30.356 8.53616C30.4116 8.6431 30.5415 8.77719 30.7439 8.93844C30.8839 9.05047 30.9548 9.18456 30.9548 9.34072C30.9548 9.86691 30.1654 10.13 28.5865 10.13C27.1814 10.13 26.4796 9.88389 26.4796 9.39165C26.4796 9.30847 26.4914 9.24567 26.5168 9.20154C26.5404 9.15741 26.6264 9.04029 26.7715 8.85018C26.9756 8.58199 27.0768 7.91152 27.0768 6.84047C27.0768 6.19207 27.0161 5.7202 26.8946 5.42315C26.7344 5.01918 26.4493 4.81719 26.0377 4.81719C25.7425 4.81719 25.5249 4.92412 25.3832 5.13799C25.282 5.29415 25.2314 5.5861 25.2314 6.01554V7.42607C25.2651 8.04901 25.2938 8.40377 25.3191 8.48524C25.3427 8.56841 25.4541 8.72118 25.6531 8.94523C25.7442 9.04708 25.7914 9.16759 25.7914 9.30338C25.7914 9.85334 25.0796 10.13 23.6559 10.13C21.9893 10.13 21.1577 9.84485 21.1577 9.27453C21.1577 9.14383 21.1847 9.04198 21.237 8.97069C21.291 8.8994 21.4209 8.79247 21.63 8.6448C21.8139 8.5141 21.9404 8.15934 22.0112 7.58053C22.0821 7.00342 22.1158 6.04779 22.1158 4.71195C22.1158 3.66466 22.0872 2.93818 22.0281 2.5342C22.0079 2.38313 21.9741 2.2728 21.9235 2.20151C21.8729 2.13022 21.7768 2.05893 21.6368 1.98594C21.3365 1.82978 21.1864 1.64986 21.1864 1.44448C21.1864 1.20005 21.2994 1.00316 21.5271 0.852089C21.7549 0.701021 22.19 0.538072 22.8344 0.363241C23.7082 0.122212 24.4032 0 24.921 0C25.201 0 25.3377 0.122212 25.3275 0.364938Z" fill="#F9DAAF"/>
<path d="M38.0968 6.70983H34.6827C34.5325 6.70983 34.4583 6.77602 34.4583 6.90672C34.4583 7.22413 34.6287 7.52118 34.9711 7.80125C35.3119 8.08132 35.6796 8.2222 36.0709 8.2222C36.3037 8.2222 36.5618 8.17637 36.8452 8.08641C37.1286 7.99645 37.3613 7.88612 37.5469 7.75372C37.7122 7.6366 37.8421 7.57889 37.9399 7.57889C38.0664 7.57889 38.1896 7.65697 38.311 7.81313C38.4325 7.96929 38.4932 8.13054 38.4932 8.29519C38.4932 8.64655 38.2756 8.98433 37.8387 9.31192C37.0695 9.89243 36.1806 10.181 35.1735 10.181C34.1564 10.181 33.3045 9.88394 32.6163 9.28986C32.2823 8.9979 32.0057 8.64485 31.7881 8.23069C31.503 7.68073 31.3596 7.10023 31.3596 6.49086C31.3596 5.67272 31.6059 4.93606 32.1001 4.28426C32.5269 3.71903 33.0684 3.29808 33.7279 3.01971C34.2222 2.81093 34.7569 2.70569 35.3338 2.70569C36.2531 2.70569 37.0358 2.96878 37.6802 3.49497C38.004 3.75807 38.2655 4.07039 38.4645 4.43023C38.6922 4.8393 38.8053 5.23989 38.8053 5.62859C38.8053 5.946 38.7395 6.2057 38.6096 6.40769C38.473 6.60798 38.3043 6.70983 38.0968 6.70983ZM34.8716 5.34343H35.6054C35.9157 5.34343 36.0709 5.19915 36.0709 4.91229C36.0709 4.6492 35.995 4.43533 35.8466 4.26898C35.6964 4.10264 35.5008 4.02116 35.2579 4.02116C34.9863 4.02116 34.7738 4.1281 34.6186 4.34197C34.4735 4.54226 34.401 4.74425 34.401 4.94794C34.401 5.09391 34.4364 5.19576 34.5055 5.25516C34.5747 5.31288 34.6962 5.34343 34.8716 5.34343Z" fill="#F9DAAF"/>
<path d="M28.4144 63.9661H25.5721C24.695 63.9661 23.9832 63.2498 23.9832 62.3672V58.7263C23.9832 57.8436 24.695 57.1273 25.5721 57.1273H28.4144C29.2916 57.1273 30.0034 57.8436 30.0034 58.7263V62.3672C30.0034 63.2515 29.2916 63.9661 28.4144 63.9661Z" fill="#DD3A31"/>
<path d="M47.1786 63.9661H44.3363C43.4592 63.9661 42.7473 63.2498 42.7473 62.3672V58.7263C42.7473 57.8436 43.4592 57.1273 44.3363 57.1273H47.1786C48.0557 57.1273 48.7676 57.8436 48.7676 58.7263V62.3672C48.7676 63.2515 48.0557 63.9661 47.1786 63.9661Z" fill="#E37229"/>
<path d="M65.9445 63.9661H63.1022C62.225 63.9661 61.5132 63.2498 61.5132 62.3672V58.7263C61.5132 57.8436 62.225 57.1273 63.1022 57.1273H65.9445C66.8216 57.1273 67.5335 57.8436 67.5335 58.7263V62.3672C67.5318 63.2515 66.8216 63.9661 65.9445 63.9661Z" fill="#EFAF23"/>
<path d="M84.7089 63.9661H81.8666C80.9894 63.9661 80.2776 63.2498 80.2776 62.3672V58.7263C80.2776 57.8436 80.9894 57.1273 81.8666 57.1273H84.7089C85.586 57.1273 86.2978 57.8436 86.2978 58.7263V62.3672C86.2978 63.2515 85.586 63.9661 84.7089 63.9661Z" fill="#DD3A31"/>
<path d="M103.473 63.9661H100.631C99.7536 63.9661 99.0417 63.2498 99.0417 62.3672V58.7263C99.0417 57.8436 99.7536 57.1273 100.631 57.1273H103.473C104.35 57.1273 105.062 57.8436 105.062 58.7263V62.3672C105.062 63.2515 104.35 63.9661 103.473 63.9661Z" fill="#E37229"/>
<path d="M122.239 63.9661H119.397C118.519 63.9661 117.808 63.2498 117.808 62.3672V58.7263C117.808 57.8436 118.519 57.1273 119.397 57.1273H122.239C123.116 57.1273 123.828 57.8436 123.828 58.7263V62.3672C123.826 63.2515 123.116 63.9661 122.239 63.9661Z" fill="#EFAF23"/>
<path d="M111.304 17.9618H104.388C102.176 17.9618 100.378 16.1507 100.378 13.9271C100.378 7.864 95.476 2.9314 89.4507 2.9314H96.3667C102.392 2.9314 107.294 7.864 107.294 13.9271C107.294 16.1507 109.092 17.9618 111.304 17.9618Z" fill="#DD3A31"/>
<path d="M153.002 28.9558V60.5221C153.002 62.4435 151.453 64.0017 149.544 64.0017C147.633 64.0017 146.086 62.4435 146.086 60.5221V28.9558C146.086 28.8862 146.084 28.8166 146.081 28.7487C145.97 22.7824 141.115 17.9618 135.159 17.9618H142.075C148.1 17.9618 153.002 22.8944 153.002 28.9558Z" fill="#DD3A31"/>
<path d="M104.387 17.9618H97.4715C95.2601 17.9618 93.4619 16.1507 93.4619 13.9271C93.4619 12.503 93.192 11.14 92.6995 9.89069C91.097 5.81865 87.1448 2.9314 82.5347 2.9314H89.4506C95.476 2.9314 100.378 7.864 100.378 13.9271C100.378 16.1507 102.176 17.9618 104.387 17.9618Z" fill="#E37229"/>
<path d="M146.086 28.9558V60.5221C146.086 62.4435 144.537 64.0017 142.628 64.0017C140.716 64.0017 139.17 62.4435 139.17 60.5221V28.9558C139.17 27.5317 138.9 26.1704 138.407 24.9211C136.806 20.8507 132.853 17.9618 128.242 17.9618H135.158C141.115 17.9618 145.969 22.7824 146.081 28.7487C146.084 28.8166 146.086 28.8862 146.086 28.9558Z" fill="#E37229"/>
<path d="M139.17 28.9557V60.5221C139.17 62.4435 137.621 64.0017 135.712 64.0017C133.801 64.0017 132.254 62.4435 132.254 60.5221V28.9557C132.254 26.7305 130.454 24.9211 128.243 24.9211H97.4715C91.4462 24.9211 86.5459 19.9884 86.5459 13.9271C86.5459 11.7018 84.7461 9.89069 82.5347 9.89069H45.239C43.3295 9.89069 41.781 8.33248 41.781 6.41104C41.781 4.4896 43.3295 2.9314 45.239 2.9314H82.5347C87.1448 2.9314 91.097 5.81865 92.6995 9.89069C93.192 11.14 93.4619 12.503 93.4619 13.9271C93.4619 16.1507 95.2601 17.9618 97.4715 17.9618H128.243C132.853 17.9618 136.807 20.8507 138.407 24.9211C138.9 26.1703 139.17 27.5316 139.17 28.9557Z" fill="#EFAF23"/>
</g>
<defs>
<clipPath id="clip0_713_2694">
<rect width="153" height="64" fill="white"/>
</clipPath>
</defs>
</svg>
