<svg width="32" height="32" viewBox="0 0 32 32" fill="none" xmlns="http://www.w3.org/2000/svg">
<path d="M22.6667 26.6667C22.6667 25.9303 23.2636 25.3334 24 25.3334C24.7364 25.3334 25.3334 25.9303 25.3334 26.6667C25.3334 27.4031 24.7364 28 24 28C23.2636 28 22.6667 27.4031 22.6667 26.6667Z" stroke="white" stroke-width="2" stroke-linecap="round" stroke-linejoin="round"/>
<path d="M9.33331 26.6667C9.33331 25.9303 9.93027 25.3334 10.6666 25.3334C11.403 25.3334 12 25.9303 12 26.6667C12 27.4031 11.403 28 10.6666 28C9.93027 28 9.33331 27.4031 9.33331 26.6667Z" stroke="white" stroke-width="2" stroke-linecap="round" stroke-linejoin="round"/>
<path d="M4 4H5.02362C5.66664 4 6.21806 4.45893 6.3348 5.09127L9.33333 21.3333" stroke="white" stroke-width="2" stroke-linecap="round" stroke-linejoin="round"/>
<path d="M7.33331 8H26.3239C27.1814 8 27.8159 8.79766 27.6231 9.63315L25.1616 20.2998C25.022 20.9048 24.4832 21.3333 23.8624 21.3333H9.33331" stroke="white" stroke-width="2" stroke-linecap="round" stroke-linejoin="round"/>
</svg>
