<svg width="328" height="137" viewBox="0 0 328 137" fill="none" xmlns="http://www.w3.org/2000/svg">
<g clip-path="url(#clip0_1081_1996)">
<mask id="mask0_1081_1996" style="mask-type:luminance" maskUnits="userSpaceOnUse" x="0" y="0" width="328" height="137">
<path d="M328 0H0V137H328V0Z" fill="white"/>
</mask>
<g mask="url(#mask0_1081_1996)">
<path d="M23.7005 38.5982V51.0573C23.7005 52.5326 24.0621 53.7352 24.7818 54.669C25.5015 55.6029 26.4272 56.0715 27.5518 56.0715C28.5064 56.0715 29.7648 55.6284 31.3306 54.7454C31.6959 54.5239 32.0649 54.4147 32.43 54.4147C33.0159 54.4147 33.5546 54.7709 34.043 55.4831C34.5311 56.195 34.777 56.9691 34.777 57.8048C34.777 59.3272 33.9452 60.7914 32.2818 62.1903C28.8065 65.1662 24.6011 66.6522 19.6613 66.6522C15.7485 66.6522 12.6024 65.5404 10.2302 63.3167C7.858 61.093 6.67189 58.1608 6.67189 54.5239V37.49C6.67189 36.9232 6.60318 36.5745 6.46938 36.4401C6.33559 36.3054 5.9848 36.2365 5.42431 36.2365H1.6526C0.943828 36.2365 0.491803 36.1203 0.296529 35.8876C0.0976372 35.6551 0 35.1065 0 34.2453V32.6248C0.0253135 31.8872 0.307377 31.3458 0.842574 31.0044L17.647 20.3873C18.0629 20.1656 18.5764 20.0566 19.1875 20.0566H22.1602C22.7711 20.0566 23.1797 20.1984 23.3896 20.4817C23.5956 20.7652 23.7005 21.3247 23.7005 22.1604V27.1382C23.7005 27.8759 23.8162 28.3556 24.0478 28.5771C24.2791 28.7987 24.7745 28.9078 25.534 28.9078H32.3215C33.2255 28.9078 33.8114 29.0748 34.0826 29.4055C34.3502 29.7363 34.4876 30.4448 34.4876 31.5239V33.7003C34.4876 34.8813 34.3178 35.6988 33.9742 36.153C33.6307 36.607 33.0086 36.8361 32.1046 36.8361H25.4616C24.7782 36.8361 24.3117 36.9596 24.0658 37.203C23.8235 37.4427 23.7005 37.9079 23.7005 38.5982Z" fill="#141313"/>
<path d="M58.9983 28.9009C63.4752 28.9009 67.3988 30.0673 70.7763 32.4036C73.1992 34.075 75.1411 36.2514 76.6094 38.9293C78.1246 41.7307 78.8839 44.6557 78.8839 47.7041C78.8839 53.0379 76.4503 57.5726 71.5828 61.3078C66.9359 64.8722 61.6165 66.6527 55.621 66.6527C49.7736 66.6527 45.0399 64.9813 41.4201 61.6385C37.8978 58.3938 36.1367 54.168 36.1367 48.9577C36.1367 43.1585 38.2884 38.4134 42.5953 34.7289C47.0975 30.8448 52.5652 28.9009 58.9983 28.9009ZM56.062 37.4178C54.9845 37.4178 54.1238 37.8174 53.4766 38.6167C52.8291 39.4161 52.5037 40.4772 52.5037 41.8069C52.5037 43.2822 52.7785 45.2914 53.3282 47.8349C53.8779 50.3784 54.5324 52.6346 55.2917 54.6004C56.0513 56.6171 57.2844 57.6234 58.9983 57.6234C61.1753 57.6234 62.2637 56.2354 62.2637 53.4594C62.2637 51.3956 61.9889 49.0484 61.4395 46.4178C60.8898 43.7872 60.2207 41.6507 59.4395 40.0047C58.6332 38.326 57.505 37.4685 56.062 37.4178Z" fill="#141313"/>
<path d="M126.031 42.5411L126.545 55.516C126.592 56.5007 126.748 57.2238 127.004 57.6926C127.261 58.1612 128.013 59.0551 129.261 60.3849C129.626 60.7775 129.811 61.3298 129.811 62.0454C129.811 63.666 128.845 64.7997 126.91 65.4355C124.979 66.0751 121.529 66.3947 116.564 66.3947C113.19 66.3947 110.804 66.1004 109.412 65.5119C107.969 64.8978 107.245 63.9022 107.245 62.5251C107.245 62.0347 107.318 61.6712 107.466 61.4387C107.614 61.2063 108.103 60.6358 108.934 59.7237C109.911 58.6919 110.402 55.2508 110.402 49.4009C110.402 46.011 110.012 43.5039 109.227 41.8796C108.591 40.579 107.415 39.925 105.705 39.925C104.067 39.925 102.942 40.4555 102.331 41.5091C101.72 42.5666 101.412 44.485 101.412 47.2609V54.5605C101.412 56.0103 101.503 57.0059 101.687 57.5473C101.872 58.0887 102.476 59.1313 103.503 60.6792C103.77 61.1226 103.908 61.6241 103.908 62.1907C103.908 63.6406 102.906 64.7124 100.899 65.3991C98.8919 66.0858 95.7639 66.4311 91.5077 66.4311C84.7056 66.4311 81.3064 65.0176 81.3064 62.1907C81.3064 61.6023 81.4113 61.1517 81.6175 60.8464C81.8235 60.5412 82.3189 60.1051 83.1036 59.5385C83.7401 59.0733 84.1416 58.5393 84.315 57.936C84.485 57.3328 84.6441 55.8541 84.7924 53.4923C84.9625 50.6909 85.0493 47.755 85.0493 44.6811C85.0493 42.9844 84.9226 41.8726 84.6623 41.3455C84.4055 40.8187 83.6642 40.172 82.442 39.4089C81.3896 38.744 80.8652 37.9338 80.8652 36.9746C80.8652 35.9935 81.2919 35.187 82.1489 34.5583C83.006 33.9298 84.7672 33.1375 87.4323 32.182C89.7791 31.3463 92.043 30.6413 94.2198 30.0636C96.3968 29.486 97.8904 29.199 98.6966 29.199C99.4309 29.199 100.049 29.4715 100.548 30.0092C101.051 30.5506 101.3 31.19 101.3 31.9276C101.3 32.0004 101.29 32.3091 101.264 32.8505C101.239 33.0468 101.228 33.2176 101.228 33.3666C101.228 34.5473 101.716 35.136 102.696 35.136C103.282 35.136 103.908 34.6709 104.566 33.7335C106.67 30.685 109.726 29.1626 113.74 29.1626C116.821 29.1626 119.465 29.9728 121.667 31.5969C123.207 32.7524 124.285 34.1113 124.896 35.6701C125.504 37.2289 125.883 39.5179 126.031 42.5411Z" fill="#141313"/>
<path d="M165.839 49.1426H148.593C147.834 49.1426 147.458 49.4733 147.458 50.1382C147.458 51.737 148.318 53.2412 150.043 54.6547C151.768 56.0682 153.62 56.7731 155.601 56.7731C156.777 56.7731 158.078 56.5477 159.51 56.0898C160.942 55.6357 162.121 55.0762 163.051 54.4113C163.882 53.8226 164.541 53.5247 165.032 53.5247C165.669 53.5247 166.291 53.917 166.902 54.7054C167.513 55.494 167.82 56.3043 167.82 57.14C167.82 58.9094 166.721 60.6172 164.519 62.2631C160.628 65.1881 156.14 66.6488 151.052 66.6488C145.913 66.6488 141.61 65.1517 138.139 62.1505C136.45 60.6752 135.058 58.8948 133.955 56.8056C132.512 54.0296 131.789 51.1047 131.789 48.0307C131.789 43.9032 133.036 40.1898 135.531 36.8978C137.683 34.0456 140.424 31.92 143.751 30.5211C146.246 29.4638 148.947 28.937 151.859 28.937C156.505 28.937 160.454 30.2631 163.709 32.9192C165.347 34.2453 166.667 35.8187 167.672 37.6391C168.822 39.7029 169.397 41.7195 169.397 43.6853C169.397 45.2839 169.068 46.592 168.406 47.6129C167.748 48.6303 166.891 49.1426 165.839 49.1426ZM149.551 42.2463H153.258C154.824 42.2463 155.605 41.5232 155.605 40.07C155.605 38.7436 155.225 37.6609 154.469 36.8252C153.71 35.9895 152.719 35.5717 151.497 35.5717C150.126 35.5717 149.052 36.113 148.268 37.1921C147.533 38.1986 147.168 39.2197 147.168 40.2515C147.168 40.9892 147.345 41.5051 147.7 41.7994C148.051 42.101 148.669 42.2463 149.551 42.2463Z" fill="#141313"/>
<path d="M28.427 73.8101C32.781 73.8101 36.6214 74.9037 39.9483 77.0912C43.1053 79.1805 44.6818 81.7747 44.6818 84.8704C44.6818 87.0068 43.9478 88.7401 42.4795 90.0698C41.109 91.3234 39.46 91.9484 37.5254 91.9484C35.4931 91.9484 33.9671 91.2108 32.9401 89.7357C32.6219 89.2669 32.1554 88.0752 31.5442 86.1602C30.8824 84.0964 29.624 83.0646 27.7654 83.0646C26.4201 83.0646 25.2882 83.6531 24.3696 84.8341C23.4512 86.0148 22.9954 87.4647 22.9954 89.1834C22.9954 92.1336 24.0478 94.7499 26.1524 97.0352C27.8629 98.8774 30.0181 99.8002 32.611 99.8002C33.8332 99.8002 34.8603 99.6949 35.692 99.4879C36.5236 99.2807 37.6122 98.8556 38.9575 98.2162C39.3009 98.0454 39.6769 97.9582 40.0965 97.9582C40.9283 97.9582 41.6623 98.3506 42.2988 99.139C42.9353 99.9274 43.2534 100.847 43.2534 101.904C43.2534 103.009 42.8015 104.171 41.8975 105.389C40.9934 106.606 39.8073 107.667 38.339 108.579C35.1604 110.544 31.4032 111.529 27.0746 111.529C22.0335 111.529 17.7412 110.054 14.1973 107.104C9.64812 103.368 7.37354 98.6122 7.37354 92.8385C7.37354 87.2829 9.48901 82.6866 13.72 79.0494C17.7484 75.5579 22.652 73.8101 28.427 73.8101Z" fill="#141313"/>
<path d="M68.017 73.7739C72.2733 73.7739 75.8823 74.8569 78.8403 77.0187C80.4062 78.1742 81.5018 79.4967 82.1238 80.9829C82.7459 82.4689 83.0604 84.5145 83.0604 87.1197L82.9881 92.6136C82.9881 96.4215 83.2557 98.8922 83.7944 100.022C84.0622 100.564 84.3188 100.909 84.5647 101.054C84.8106 101.203 85.3242 101.337 86.1052 101.461C86.8864 101.584 87.2804 102.101 87.2804 103.009C87.2804 104.19 86.8103 105.418 85.8666 106.697C84.9263 107.976 83.7078 109.044 82.2142 109.905C80.3809 110.988 78.4607 111.526 76.4536 111.526C73.886 111.526 71.8537 110.639 70.364 108.873C69.8503 108.234 69.3731 107.914 68.9319 107.914C68.4438 107.914 67.7927 108.223 66.9864 108.837C64.5419 110.632 61.7646 111.529 58.6582 111.529C55.4544 111.529 52.8614 110.843 50.8799 109.466C49.5817 108.557 48.5546 107.369 47.7989 105.908C47.0395 104.448 46.6597 102.918 46.6597 101.319C46.6597 98.7651 47.6868 96.5014 49.7407 94.5356C52.9446 91.4399 57.7399 89.8776 64.1223 89.8522C65.5398 89.8522 66.4331 89.7105 66.8019 89.427C67.1672 89.1436 67.3515 88.486 67.3515 87.454C67.3515 84.8489 67.0803 82.963 66.5453 81.7968C66.0063 80.6304 65.1276 80.0453 63.9017 80.0453C63.1677 80.0453 62.5132 80.2671 61.9383 80.7104C61.3633 81.1535 60.6473 81.964 59.7902 83.1447C57.6132 86.266 55.3386 87.8282 52.9665 87.8282C51.7694 87.8282 50.7895 87.4722 50.0301 86.76C49.2706 86.0478 48.8909 85.1141 48.8909 83.9586C48.8909 82.7778 49.3611 81.6005 50.305 80.4197C51.245 79.2387 52.5253 78.2069 54.1381 77.3239C58.5751 74.9549 63.1967 73.7739 68.017 73.7739ZM65.558 95.1207C64.4804 95.1207 63.5474 95.564 62.7518 96.4468C61.9563 97.3334 61.5586 98.387 61.5586 99.619C61.5586 100.8 61.8405 101.752 62.4011 102.475C62.9651 103.202 63.7101 103.561 64.6394 103.561C66.5959 103.561 67.5758 101.904 67.5758 98.5833C67.5758 97.2318 67.4347 96.3233 67.1528 95.8547C66.8707 95.3895 66.339 95.1461 65.558 95.1207Z" fill="#141313"/>
<path d="M106.798 74.0322C108.092 74.0322 108.884 74.2174 109.163 74.5845C109.445 74.9514 109.694 76.1322 109.915 78.1234C110.038 79.2061 110.417 79.7438 111.054 79.7438C111.542 79.7438 112.009 79.3879 112.45 78.6757C114.406 75.6054 116.963 74.0684 120.12 74.0684C122.344 74.0684 124.166 74.7951 125.587 76.245C126.271 76.957 126.835 77.8727 127.276 78.9918C127.717 80.111 127.938 81.1864 127.938 82.2184C127.938 83.3737 127.667 84.5583 127.132 85.7755C126.593 86.9926 125.895 87.9955 125.041 88.7803C123.476 90.2811 121.555 91.0294 119.281 91.0294C118.033 91.0294 116.988 90.8079 116.145 90.3646C115.303 89.9212 114.193 89.0239 112.826 87.6721C112.312 87.1562 111.835 86.8982 111.394 86.8982C110.71 86.8982 110.262 87.2833 110.056 88.061C109.846 88.8349 109.745 90.4626 109.745 92.9444C109.745 96.6541 109.879 99.1867 110.15 100.538C110.32 101.276 110.559 101.785 110.866 102.068C111.173 102.351 111.824 102.638 112.829 102.933C115.032 103.598 116.131 104.753 116.131 106.399C116.131 107.409 115.777 108.285 115.068 109.033C114.359 109.782 113.415 110.28 112.244 110.527C109.897 111.017 106.447 111.264 101.898 111.264C97.5691 111.264 94.2784 110.883 92.0291 110.12C90.0221 109.433 89.0205 108.241 89.0205 106.544C89.0205 105.265 89.7545 104.124 91.2226 103.114C91.9316 102.649 92.4197 102.224 92.6909 101.843C92.9584 101.461 93.1428 100.938 93.2406 100.277C93.6312 98.0421 93.8262 93.9 93.8262 87.8538C93.8262 86.7493 93.7034 85.9536 93.4612 85.4775C93.2153 84.998 92.7271 84.6127 91.9929 84.3149C90.2573 83.6282 89.3892 82.6326 89.3892 81.3281C89.3892 80.1473 89.9895 79.1335 91.1866 78.2869C92.3835 77.4403 94.3905 76.5973 97.2038 75.7616C100.95 74.6352 104.154 74.0575 106.798 74.0322Z" fill="#141313"/>
<path d="M147.302 74.0322C148.597 74.0322 149.389 74.2174 149.667 74.5845C149.949 74.9514 150.199 76.1322 150.419 78.1234C150.542 79.2061 150.918 79.7438 151.555 79.7438C152.043 79.7438 152.51 79.3879 152.951 78.6757C154.907 75.6054 157.464 74.0684 160.621 74.0684C162.845 74.0684 164.667 74.7951 166.089 76.245C166.772 76.957 167.336 77.8727 167.777 78.9918C168.218 80.111 168.439 81.1864 168.439 82.2184C168.439 83.3737 168.171 84.5583 167.633 85.7755C167.094 86.9926 166.396 87.9955 165.542 88.7803C163.977 90.2811 162.056 91.0294 159.782 91.0294C158.534 91.0294 157.489 90.8079 156.647 90.3646C155.804 89.9212 154.698 89.0239 153.327 87.6721C152.813 87.1562 152.336 86.8982 151.895 86.8982C151.212 86.8982 150.763 87.2833 150.557 88.061C150.347 88.8349 150.246 90.4626 150.246 92.9444C150.246 96.6541 150.38 99.1867 150.651 100.538C150.821 101.276 151.06 101.785 151.367 102.068C151.674 102.351 152.325 102.638 153.33 102.933C155.533 103.598 156.632 104.753 156.632 106.399C156.632 107.409 156.278 108.285 155.569 109.033C154.86 109.782 153.916 110.28 152.745 110.527C150.398 111.017 146.948 111.264 142.399 111.264C138.07 111.264 134.779 110.883 132.53 110.12C130.523 109.433 129.521 108.241 129.521 106.544C129.521 105.265 130.256 104.124 131.724 103.114C132.433 102.649 132.921 102.224 133.192 101.843C133.459 101.461 133.644 100.938 133.742 100.277C134.132 98.0421 134.327 93.9 134.327 87.8538C134.327 86.7493 134.204 85.9536 133.962 85.4775C133.716 84.998 133.228 84.6127 132.494 84.3149C130.758 83.6282 129.89 82.6326 129.89 81.3281C129.89 80.1473 130.491 79.1335 131.688 78.2869C132.884 77.4403 134.891 76.5973 137.705 75.7616C141.459 74.6352 144.662 74.0575 147.302 74.0322Z" fill="#141313"/>
<path d="M191.257 76.3576V97.7769C191.257 99.4738 191.409 100.713 191.716 101.501C192.024 102.29 192.639 103.013 193.568 103.678C194.327 104.219 194.834 104.681 195.09 105.058C195.347 105.44 195.474 105.923 195.474 106.515C195.474 109.688 191.474 111.272 183.475 111.272C179.168 111.272 175.758 110.927 173.238 110.24C172.381 109.993 171.69 109.564 171.166 108.95C170.637 108.336 170.377 107.634 170.377 106.85C170.377 106.185 170.511 105.669 170.782 105.302C171.05 104.935 171.737 104.343 172.836 103.532C173.596 102.969 174.131 102.046 174.449 100.767C174.767 99.4883 174.926 97.5845 174.926 95.0519C174.926 94.2417 174.872 92.7229 174.76 90.4992C174.652 88.2755 174.572 86.9783 174.521 86.6078C174.373 85.6013 173.69 84.8272 172.467 84.2858C170.952 83.621 170.193 82.6399 170.193 81.3356C170.193 79.7878 171.184 78.6322 173.165 77.8691C175.906 76.8119 178.839 75.9143 181.971 75.1768C185.102 74.4392 187.522 74.0723 189.236 74.0723C190.585 74.0686 191.257 74.8316 191.257 76.3576ZM183.992 60.2104C186.118 60.2104 187.807 60.6103 189.055 61.4096C190.302 62.2089 190.924 63.2844 190.924 64.6362C190.924 66.5291 189.984 68.0261 188.1 69.1343C185.117 70.8785 181.508 71.7503 177.277 71.7503C175.491 71.7503 174.073 71.4053 173.021 70.7186C171.603 69.8356 170.894 68.6038 170.894 67.0305C170.894 64.916 172.399 63.2589 175.407 62.0527C178.467 60.8246 181.327 60.2104 183.992 60.2104Z" fill="#141313"/>
<path d="M231.545 94.0161H214.3C213.54 94.0161 213.161 94.3468 213.161 95.0117C213.161 96.6103 214.021 98.1148 215.747 99.528C217.471 100.941 219.323 101.646 221.304 101.646C222.481 101.646 223.782 101.421 225.214 100.963C226.646 100.509 227.825 99.9495 228.753 99.2846C229.585 98.696 230.243 98.4016 230.736 98.4016C231.371 98.4016 231.995 98.7942 232.606 99.5826C233.217 100.371 233.523 101.181 233.523 102.017C233.523 103.787 232.423 105.494 230.222 107.14C226.335 110.065 221.844 111.526 216.755 111.526C211.62 111.526 207.313 110.029 203.842 107.027C202.153 105.552 200.761 103.772 199.658 101.683C198.215 98.9068 197.492 95.9819 197.492 92.9079C197.492 88.7804 198.739 85.0668 201.234 81.775C203.386 78.9226 206.127 76.7971 209.454 75.3982C211.949 74.3408 214.651 73.814 217.561 73.814C222.208 73.814 226.161 75.1403 229.411 77.7964C231.049 79.1225 232.37 80.6959 233.375 82.5162C234.524 84.58 235.101 86.5965 235.101 88.5622C235.101 90.1611 234.771 91.469 234.109 92.4901C233.45 93.5039 232.597 94.0161 231.545 94.0161ZM215.254 87.1199H218.96C220.528 87.1199 221.308 86.3931 221.308 84.9433C221.308 83.6172 220.928 82.5344 220.17 81.6987C219.409 80.863 218.418 80.4452 217.196 80.4452C215.826 80.4452 214.752 80.9866 213.967 82.0656C213.233 83.0722 212.868 84.093 212.868 85.125C212.868 85.8627 213.045 86.3786 213.399 86.6729C213.757 86.9745 214.372 87.1199 215.254 87.1199Z" fill="#141313"/>
<path d="M254.625 74.0322C255.919 74.0322 256.711 74.2174 256.989 74.5845C257.27 74.9514 257.521 76.1322 257.742 78.1234C257.864 79.2061 258.243 79.7438 258.88 79.7438C259.369 79.7438 259.834 79.3879 260.276 78.6757C262.233 75.6054 264.788 74.0684 267.946 74.0684C270.169 74.0684 271.991 74.7951 273.413 76.245C274.097 76.957 274.661 77.8727 275.102 78.9918C275.544 80.111 275.765 81.1864 275.765 82.2184C275.765 83.3737 275.492 84.5583 274.958 85.7755C274.418 86.9926 273.722 87.9955 272.868 88.7803C271.301 90.2811 269.382 91.0294 267.108 91.0294C265.86 91.0294 264.814 90.8079 263.972 90.3646C263.129 89.9212 262.023 89.0239 260.653 87.6721C260.138 87.1562 259.66 86.8982 259.221 86.8982C258.537 86.8982 258.089 87.2833 257.881 88.061C257.673 88.8349 257.57 90.4626 257.57 92.9444C257.57 96.6541 257.705 99.1867 257.975 100.538C258.147 101.276 258.385 101.785 258.691 102.068C258.996 102.351 259.65 102.638 260.655 102.933C262.859 103.598 263.957 104.753 263.957 106.399C263.957 107.409 263.603 108.285 262.893 109.033C262.186 109.782 261.243 110.28 260.07 110.527C257.722 111.017 254.273 111.264 249.724 111.264C245.396 111.264 242.105 110.883 239.856 110.12C237.847 109.433 236.846 108.241 236.846 106.544C236.846 105.265 237.582 104.124 239.048 103.114C239.757 102.649 240.246 102.224 240.516 101.843C240.784 101.461 240.969 100.938 241.067 100.277C241.457 98.0421 241.653 93.9 241.653 87.8538C241.653 86.7493 241.53 85.9536 241.288 85.4775C241.042 84.998 240.553 84.6127 239.82 84.3149C238.083 83.6282 237.215 82.6326 237.215 81.3281C237.215 80.1473 237.815 79.1335 239.014 78.2869C240.21 77.4403 242.216 76.5973 245.031 75.7616C248.776 74.6352 251.981 74.0575 254.625 74.0322Z" fill="#141313"/>
<path d="M40.0167 9.8867V15.1734C40.0167 15.7984 40.1684 16.3107 40.4759 16.7067C40.7833 17.1028 41.1737 17.3026 41.6511 17.3026C42.0561 17.3026 42.5914 17.1137 43.2568 16.7394C43.4122 16.645 43.5676 16.5977 43.7233 16.5977C43.9726 16.5977 44.2005 16.7503 44.4067 17.0519C44.6127 17.3535 44.7176 17.6841 44.7176 18.0366C44.7176 18.6833 44.3632 19.3047 43.6581 19.8969C42.1827 21.1577 40.4 21.7899 38.3025 21.7899C36.6425 21.7899 35.3083 21.3176 34.2994 20.3729C33.2939 19.4282 32.7878 18.1855 32.7878 16.6413V9.41797C32.7878 9.17818 32.7589 9.02919 32.701 8.97107C32.6431 8.91293 32.495 8.88386 32.2561 8.88386H30.6507C30.3505 8.88386 30.1589 8.833 30.0757 8.7349C29.9925 8.63679 29.9526 8.40423 29.9526 8.03727V7.35053C29.9636 7.03806 30.0828 6.80915 30.3106 6.66382L37.4418 2.1583C37.619 2.06384 37.836 2.0166 38.0965 2.0166H39.3585C39.6188 2.0166 39.7924 2.07837 39.8792 2.19828C39.9659 2.31818 40.013 2.55435 40.013 2.91043V5.02149C40.013 5.33396 40.0636 5.53742 40.1612 5.63191C40.2589 5.72638 40.4686 5.77362 40.7904 5.77362H43.6725C44.0558 5.77362 44.3053 5.84265 44.4211 5.98434C44.5368 6.12605 44.5911 6.42401 44.5911 6.88546V7.80835C44.5911 8.30977 44.5188 8.65494 44.3741 8.84751C44.2294 9.04011 43.9655 9.13821 43.5786 9.13821H40.7614C40.4722 9.13821 40.2733 9.18907 40.1684 9.29443C40.0709 9.39618 40.0167 9.59603 40.0167 9.8867Z" fill="#141313"/>
<path d="M54.2971 0.781195L54.0947 7.33599C54.0731 8.11716 54.3117 8.50958 54.8107 8.50958C55.0603 8.50958 55.3025 8.3388 55.5411 7.99363C56.5464 6.52208 57.8916 5.78812 59.5732 5.78812C61.2222 5.78812 62.5385 6.29318 63.5113 7.30692C63.9489 7.75384 64.2563 8.28794 64.437 8.902C64.6177 9.51606 64.7191 10.399 64.7408 11.5472L64.8818 17.1936C64.8926 17.6841 64.9577 18.0438 65.0771 18.2727C65.1963 18.5016 65.4748 18.7887 65.9087 19.1338C66.2089 19.3737 66.3608 19.6607 66.3608 19.995C66.3608 21.1214 64.6685 21.6845 61.2837 21.6845C58.2715 21.6845 56.767 21.1577 56.767 20.104C56.767 19.9259 56.7922 19.7915 56.8467 19.697C56.8973 19.6026 57.0817 19.3519 57.3927 18.9449C57.8303 18.3708 58.0472 16.9356 58.0472 14.6429C58.0472 13.2549 57.9171 12.2448 57.6566 11.6089C57.3132 10.7442 56.702 10.3118 55.8196 10.3118C55.1868 10.3118 54.7203 10.5407 54.4165 10.9985C54.1995 11.3328 54.0911 11.9577 54.0911 12.877V15.8964C54.1633 17.2299 54.2248 17.9893 54.2791 18.1637C54.3297 18.3418 54.5685 18.6688 54.9951 19.1484C55.1904 19.3664 55.2916 19.6244 55.2916 19.915C55.2916 21.0923 53.7656 21.6845 50.7135 21.6845C47.1407 21.6845 45.3579 21.0741 45.3579 19.8533C45.3579 19.5735 45.4158 19.3555 45.5279 19.2029C45.6437 19.0503 45.9222 18.8214 46.3704 18.5053C46.7647 18.2255 47.0359 17.4661 47.1876 16.2271C47.3396 14.9917 47.4119 12.946 47.4119 10.0865C47.4119 7.84466 47.3506 6.28954 47.2239 5.42477C47.1806 5.10139 47.1081 4.86521 46.9996 4.71261C46.8912 4.56 46.6851 4.4074 46.385 4.25115C45.7412 3.91687 45.4194 3.53173 45.4194 3.09209C45.4194 2.56886 45.6617 2.14739 46.1498 1.824C46.6382 1.50062 47.5709 1.15181 48.9524 0.777563C50.8257 0.26161 52.3156 0 53.4256 0C54.0259 0 54.319 0.26161 54.2971 0.781195Z" fill="#141313"/>
<path d="M81.6717 14.3634H74.3525C74.0306 14.3634 73.8715 14.505 73.8715 14.7848C73.8715 15.4643 74.2368 16.1002 74.9708 16.6997C75.7014 17.2992 76.4897 17.6008 77.3286 17.6008C77.8276 17.6008 78.3809 17.5027 78.9885 17.3101C79.596 17.1175 80.0949 16.8813 80.4928 16.5979C80.8472 16.3472 81.1256 16.2237 81.3353 16.2237C81.6065 16.2237 81.8706 16.3908 82.1309 16.7251C82.3913 17.0594 82.5215 17.4046 82.5215 17.757C82.5215 18.5091 82.055 19.2322 81.1184 19.9335C79.4693 21.1761 77.5637 21.7938 75.4047 21.7938C73.2243 21.7938 71.398 21.1579 69.9226 19.8862C69.2066 19.2613 68.6136 18.5055 68.1471 17.6189C67.5359 16.4417 67.2285 15.1991 67.2285 13.8946C67.2285 12.1433 67.7565 10.5664 68.816 9.17112C69.731 7.96117 70.8918 7.06008 72.3057 6.46419C73.3653 6.01727 74.5116 5.79199 75.7484 5.79199C77.7192 5.79199 79.3971 6.35517 80.7786 7.48155C81.4727 8.04474 82.0333 8.7133 82.4599 9.48359C82.9481 10.3593 83.1905 11.2168 83.1905 12.0488C83.1905 12.7283 83.0495 13.2842 82.771 13.7166C82.4782 14.1453 82.1165 14.3634 81.6717 14.3634ZM74.7575 11.4384H76.3306C76.9958 11.4384 77.3286 11.1296 77.3286 10.5155C77.3286 9.95232 77.1658 9.4945 76.8477 9.13841C76.5257 8.78234 76.1064 8.60792 75.5857 8.60792C75.0034 8.60792 74.5478 8.83684 74.2151 9.29465C73.9041 9.7234 73.7486 10.1558 73.7486 10.5918C73.7486 10.9043 73.8245 11.1223 73.9727 11.2495C74.121 11.373 74.3815 11.4384 74.7575 11.4384Z" fill="#141313"/>
<path d="M60.9146 136.927H54.8213C52.941 136.927 51.415 135.394 51.415 133.505V125.711C51.415 123.821 52.941 122.288 54.8213 122.288H60.9146C62.7951 122.288 64.3211 123.821 64.3211 125.711V133.505C64.3211 135.398 62.7951 136.927 60.9146 136.927Z" fill="#141313"/>
<path d="M101.141 136.927H95.0476C93.1673 136.927 91.6411 135.394 91.6411 133.505V125.711C91.6411 123.821 93.1673 122.288 95.0476 122.288H101.141C103.021 122.288 104.547 123.821 104.547 125.711V133.505C104.547 135.398 103.021 136.927 101.141 136.927Z" fill="#141313"/>
<path d="M141.371 136.927H135.278C133.398 136.927 131.872 135.394 131.872 133.505V125.711C131.872 123.821 133.398 122.288 135.278 122.288H141.371C143.252 122.288 144.778 123.821 144.778 125.711V133.505C144.774 135.398 143.252 136.927 141.371 136.927Z" fill="#141313"/>
<path d="M181.598 136.927H175.505C173.625 136.927 172.099 135.394 172.099 133.505V125.711C172.099 123.821 173.625 122.288 175.505 122.288H181.598C183.479 122.288 185.005 123.821 185.005 125.711V133.505C185.005 135.398 183.479 136.927 181.598 136.927Z" fill="#141313"/>
<path d="M221.824 136.927H215.732C213.851 136.927 212.325 135.394 212.325 133.505V125.711C212.325 123.821 213.851 122.288 215.732 122.288H221.824C223.705 122.288 225.231 123.821 225.231 125.711V133.505C225.231 135.398 223.705 136.927 221.824 136.927Z" fill="#141313"/>
<path d="M262.055 136.927H255.962C254.08 136.927 252.556 135.394 252.556 133.505V125.711C252.556 123.821 254.08 122.288 255.962 122.288H262.055C263.935 122.288 265.461 123.821 265.461 125.711V133.505C265.457 135.398 263.935 136.927 262.055 136.927Z" fill="#141313"/>
<path d="M238.613 38.4494H223.786C219.044 38.4494 215.19 34.5725 215.19 29.8126C215.19 16.8337 204.681 6.2749 191.764 6.2749H206.59C219.507 6.2749 230.016 16.8337 230.016 29.8126C230.016 34.5725 233.871 38.4494 238.613 38.4494Z" fill="#141313"/>
<path d="M328.004 61.9837V129.555C328.004 133.668 324.683 137.004 320.591 137.004C316.494 137.004 313.178 133.668 313.178 129.555V61.9837C313.178 61.8347 313.173 61.6858 313.167 61.5404C312.929 48.7688 302.521 38.4497 289.752 38.4497H304.579C317.495 38.4497 328.004 49.0086 328.004 61.9837Z" fill="#141313"/>
<path d="M298.351 61.9832V129.555C298.351 133.668 295.031 137.004 290.938 137.004C286.841 137.004 283.525 133.668 283.525 129.555V61.9832C283.525 57.2198 279.666 53.3466 274.926 53.3466H208.959C196.042 53.3466 185.536 42.7875 185.536 29.8126C185.536 25.049 181.678 21.1721 176.937 21.1721H96.9831C92.8895 21.1721 89.5698 17.8366 89.5698 13.7235C89.5698 9.61042 92.8895 6.2749 96.9831 6.2749H176.937C186.82 6.2749 195.293 12.4554 198.728 21.1721C199.784 23.8464 200.363 26.7641 200.363 29.8126C200.363 34.5725 204.218 38.4494 208.959 38.4494H274.926C284.809 38.4494 293.286 44.6334 296.716 53.3466C297.773 56.0207 298.351 58.9347 298.351 61.9832Z" fill="#141313"/>
</g>
</g>
<defs>
<clipPath id="clip0_1081_1996">
<rect width="328" height="137" fill="white"/>
</clipPath>
</defs>
</svg>
